<svg width="18" height="12" viewBox="0 0 18 12" fill="none" xmlns="http://www.w3.org/2000/svg">
<path fill-rule="evenodd" clip-rule="evenodd" d="M6.98979 0C6.65476 0 6.33348 0.133089 6.0966 0.369969L5.73281 0.733752C5.25903 1.20751 4.61647 1.47369 3.94644 1.47369H1.92C0.876337 1.47369 0.0291755 2.31767 0.0252629 3.36132L1.35956e-05 10.0982C-0.00391836 11.1474 0.845518 12 1.89473 12H15.4139C16.4604 12 17.3087 11.1517 17.3087 10.1053V3.38468C17.3087 2.34219 16.4665 1.49553 15.424 1.48998L13.3998 1.4792C12.7345 1.47568 12.0974 1.20979 11.6269 0.739303L11.2576 0.369969C11.0207 0.133089 10.6994 0 10.3644 0H6.98979V0ZM13.0981 6.10526C13.0981 8.54694 11.1188 10.5263 8.67709 10.5263C6.23541 10.5263 4.25604 8.54694 4.25604 6.10526C4.25604 3.66357 6.23541 1.6842 8.67709 1.6842C11.1188 1.6842 13.0981 3.66357 13.0981 6.10526V6.10526ZM14.3613 4.21052C14.7101 4.21052 14.9929 3.90419 14.9929 3.52632C14.9929 3.14843 14.7101 2.84211 14.3613 2.84211C14.0125 2.84211 13.7297 3.14843 13.7297 3.52632C13.7297 3.90419 14.0125 4.21052 14.3613 4.21052ZM5.72973 6.10526C5.72973 7.73304 7.0493 9.05264 8.67709 9.05264C10.3049 9.05264 11.6245 7.73304 11.6245 6.10526C11.6245 4.47747 10.3049 3.15789 8.67709 3.15789C7.0493 3.15789 5.72973 4.47747 5.72973 6.10526Z" fill="black"/>
</svg>
