<svg width="28" height="23" viewBox="0 0 28 23" fill="none" xmlns="http://www.w3.org/2000/svg">
<path fill-rule="evenodd" clip-rule="evenodd" d="M4.53294 12.88H9.91872C10.4265 12.88 10.8387 13.2922 10.8387 13.8C10.8387 14.3078 10.4265 14.72 9.91872 14.72H4.53294C4.02517 14.72 3.61294 14.3078 3.61294 13.8C3.61294 13.2922 4.02517 12.88 4.53294 12.88Z" fill="black"/>
<path fill-rule="evenodd" clip-rule="evenodd" d="M6 0C2.68629 0 0 2.68628 0 6V17C0 20.3137 2.68629 23 6 23H22C25.3137 23 28 20.3137 28 17V6C28 2.68628 25.3137 0 22 0H6ZM5.80644 1.84003C3.70502 1.84003 1.98209 3.46045 1.81906 5.52002H26.1809C26.0179 3.46045 24.295 1.84003 22.1935 1.84003H5.80644ZM1.80644 9.20001V7.36005H26.1935V9.20001H1.80644ZM1.80644 11.04V17.16C1.80644 19.3691 3.5973 21.16 5.80644 21.16H22.1935C24.4027 21.16 26.1935 19.3691 26.1935 17.16V11.04H1.80644Z" fill="black"/>
<path fill-rule="evenodd" clip-rule="evenodd" d="M24.3871 16.1C24.3871 14.3228 22.9706 12.88 21.2258 12.88C19.481 12.88 18.0645 14.3228 18.0645 16.1C18.0645 17.8772 19.481 19.32 21.2258 19.32C22.9706 19.32 24.3871 17.8772 24.3871 16.1ZM22.5806 16.1C22.5806 15.3384 21.9736 14.72 21.2258 14.72C20.4781 14.72 19.871 15.3384 19.871 16.1C19.871 16.8617 20.4781 17.48 21.2258 17.48C21.9736 17.48 22.5806 16.8617 22.5806 16.1Z" fill="black"/>
</svg>
