<svg width="12" height="8" viewBox="0 0 12 8" fill="none" xmlns="http://www.w3.org/2000/svg">
<path fill-rule="evenodd" clip-rule="evenodd" d="M6 7.07422e-05C5.65212 -0.00348976 5.30311 0.127352 5.03791 0.39254C4.98272 0.447725 4.93335 0.506526 4.88981 0.568219L0.392536 5.06549C-0.130845 5.58885 -0.130846 6.43869 0.392535 6.96208C0.915916 7.48548 1.76576 7.48548 2.28914 6.96208L6 3.25123L9.71086 6.96209C10.2342 7.48548 11.0841 7.48548 11.6075 6.96209C12.1308 6.43869 12.1308 5.58886 11.6075 5.06549L7.1102 0.568221C7.06665 0.506527 7.01728 0.447726 6.9621 0.392541C6.69689 0.127353 6.34789 -0.00348939 6 7.07331e-05V7.07422e-05Z" fill="black"/>
</svg>
