<svg width="8" height="12" viewBox="0 0 8 12" fill="none" xmlns="http://www.w3.org/2000/svg">
<path fill-rule="evenodd" clip-rule="evenodd" d="M7.03445e-05 6C-0.00347955 6.34788 0.127345 6.6969 0.392537 6.96209C0.447715 7.01727 0.506519 7.06662 0.568188 7.11017L5.06548 11.6075C5.58886 12.1308 6.43871 12.1308 6.96209 11.6075C7.48547 11.0841 7.48547 10.2342 6.96209 9.71086L3.25123 6L6.96209 2.28914C7.48547 1.76576 7.48547 0.915921 6.96209 0.392536C6.43871 -0.130845 5.58886 -0.130845 5.06548 0.392536L0.568192 4.88983C0.506523 4.93337 0.447715 4.98273 0.392537 5.03791C0.127345 5.3031 -0.00347955 5.65211 7.03354e-05 6H7.03445e-05Z" fill="black"/>
</svg>
