<svg width="8" height="12" viewBox="0 0 8 12" fill="none" xmlns="http://www.w3.org/2000/svg">
<path fill-rule="evenodd" clip-rule="evenodd" d="M7.35453 5.99999C7.35806 6.34785 7.22725 6.69687 6.96206 6.96205C6.9069 7.01724 6.8481 7.06653 6.78647 7.11009L2.28913 11.6074C1.76577 12.1308 0.915938 12.1308 0.392545 11.6074C-0.130848 11.0841 -0.130848 10.2342 0.392545 9.71083L4.10341 5.99999L0.392545 2.28915C-0.130848 1.76579 -0.130848 0.915931 0.392545 0.392566C0.915938 -0.130855 1.76577 -0.130855 2.28913 0.392566L6.78647 4.8899C6.8481 4.93346 6.9069 4.98275 6.96206 5.03793C7.22725 5.30312 7.35806 5.65214 7.35453 5.99999V5.99999Z" fill="black"/>
</svg>
