<svg width="13" height="13" viewBox="0 0 13 13" fill="none" xmlns="http://www.w3.org/2000/svg">
<path fill-rule="evenodd" clip-rule="evenodd" d="M0.41063 0.410627C0.736132 0.0851246 1.26388 0.0851246 1.58938 0.410627L6.36159 5.18284L11.1338 0.410627C11.4593 0.0851246 11.9871 0.0851246 12.3126 0.410627C12.6381 0.736129 12.6381 1.26387 12.3126 1.58937L7.54034 6.36159L12.3126 11.1338C12.6381 11.4593 12.6381 11.987 12.3126 12.3125C11.9871 12.6381 11.4593 12.6381 11.1338 12.3125L6.36159 7.54034L1.58938 12.3125C1.26388 12.6381 0.736132 12.6381 0.41063 12.3125C0.0851284 11.987 0.0851284 11.4593 0.41063 11.1338L5.18284 6.36159L0.41063 1.58937C0.0851284 1.26387 0.0851284 0.736129 0.41063 0.410627Z" fill="black"/>
</svg>
