<svg width="23" height="25" viewBox="0 0 23 25" fill="none" xmlns="http://www.w3.org/2000/svg">
<path fill-rule="evenodd" clip-rule="evenodd" d="M11.0435 0L22.087 9.96076V20.7585C22.087 21.7202 21.6298 22.6056 21.0201 23.2342C20.4121 23.8608 19.5399 24.3467 18.5761 24.3467H13.8098V17.8771L13.5543 17.8761H8.53261L8.27718 17.8771V24.3467H3.51087C2.54704 24.3467 1.67481 23.8608 1.0669 23.2342C0.457131 22.6056 0 21.7202 0 20.7585V9.96076L11.0435 0ZM2 10.8502V20.7585C2 21.0909 2.17058 21.4995 2.50239 21.8416C2.83605 22.1855 3.21926 22.3467 3.51087 22.3467H6.27718V15.8852L8.53261 15.8761L13.5584 15.8761L15.8098 15.8852V22.3467H18.5761C18.8677 22.3467 19.2509 22.1855 19.5846 21.8415C19.9164 21.4995 20.087 21.0908 20.087 20.7585V10.8502L11.0435 2.69334L2 10.8502Z" fill="black"/>
</svg>
