<svg width="4" height="21" viewBox="0 0 4 21" fill="none" xmlns="http://www.w3.org/2000/svg">
<path d="M2 3.706C3.10457 3.706 4 2.87638 4 1.853C4 0.829616 3.10457 0 2 0C0.89543 0 0 0.829616 0 1.853C0 2.87638 0.89543 3.706 2 3.706Z" fill="black"/>
<path d="M2 12.353C3.10457 12.353 4 11.5234 4 10.5C4 9.47662 3.10457 8.647 2 8.647C0.89543 8.647 0 9.47662 0 10.5C0 11.5234 0.89543 12.353 2 12.353Z" fill="black"/>
<path d="M2 21C3.10457 21 4 20.1704 4 19.147C4 18.1236 3.10457 17.294 2 17.294C0.89543 17.294 0 18.1236 0 19.147C0 20.1704 0.89543 21 2 21Z" fill="black"/>
</svg>
