<svg width="12" height="12" viewBox="0 0 12 12" fill="none" xmlns="http://www.w3.org/2000/svg">
<path fill-rule="evenodd" clip-rule="evenodd" d="M4.80997 1.19003C4.80997 0.533234 5.3432 0 6 0C6.6568 0 7.19003 0.533234 7.19003 1.19003V4.80997H10.81C11.4668 4.80997 12 5.34321 12 6C12 6.6568 11.4668 7.19003 10.81 7.19003H7.19003V10.81C7.19003 11.4668 6.6568 12 6 12C5.3432 12 4.80997 11.4668 4.80997 10.81V7.19003H1.19003C0.533228 7.19003 0 6.6568 0 6C0 5.34321 0.533228 4.80997 1.19003 4.80997H4.80997V1.19003Z" fill="black"/>
</svg>
