<svg width="28" height="23" viewBox="0 0 28 23" fill="none" xmlns="http://www.w3.org/2000/svg">
<path fill-rule="evenodd" clip-rule="evenodd" d="M6 5C2.6863 5 0 7.68628 0 11V17C0 20.3137 2.6863 23 6 23H22C25.3137 23 28 20.3137 28 17V11C28 7.68628 25.3137 5 22 5H6ZM5.80646 6.84003C3.59732 6.84003 1.80646 8.63086 1.80646 10.84V17.16C1.80646 19.3691 3.59732 21.16 5.80646 21.16H22.1936C24.4027 21.16 26.1936 19.3691 26.1936 17.16V10.84C26.1936 8.63086 24.4027 6.84003 22.1936 6.84003H5.80646Z" fill="black"/>
<path fill-rule="evenodd" clip-rule="evenodd" d="M25.1973 3C24.1599 1.2066 22.2208 0 20 0H8C5.77916 0 3.84012 1.2066 2.80269 3H4.98967C5.71259 2.28296 6.7078 1.84003 7.80646 1.84003H20.1936C21.2922 1.84003 22.2874 2.28296 23.0103 3H25.1973Z" fill="black"/>
<path fill-rule="evenodd" clip-rule="evenodd" d="M17.7622 11.5441C17.7622 10.9759 17.6528 10.3461 17.9337 10.0459C18.2966 9.6573 19 9.91459 19 10.4452V13.1253C18.9646 13.4588 18.7024 13.7103 18.391 13.7095H16.0596C15.7164 13.7421 15.4137 13.4685 15.3835 13.0985C15.3533 12.7284 15.6071 12.4021 15.9502 12.3695C16.2105 12.3429 16.4722 12.3375 16.7332 12.3534C16.63 12.1429 16.5059 11.9452 16.3628 11.7638L16.2038 11.5789C15.7945 11.1047 15.2819 10.7482 14.7124 10.5417C13.6098 10.1553 12.4014 10.3788 11.4812 11.1394C10.9205 11.6072 10.5003 12.243 10.2732 12.9672C10.241 13.1178 10.1961 13.2649 10.139 13.4067C9.99535 13.6817 9.69469 13.8135 9.41382 13.7245C9.13296 13.6355 8.9462 13.3493 8.96336 13.0342C8.96336 12.7233 9.31879 11.8469 9.46047 11.5789C9.63147 11.2763 9.82872 10.9918 10.0495 10.7293L10.2807 10.4613C10.6087 10.1349 10.9726 9.85314 11.3644 9.62246C11.6794 9.44003 12.013 9.29791 12.3586 9.19902C12.4754 9.15614 12.6196 9.12665 12.7439 9.09717C13.0913 9.02787 13.4447 9.00001 13.7978 9.01409H14.0239C14.7743 9.07558 15.4998 9.33115 16.1391 9.75915C16.241 9.82615 16.3206 9.89047 16.4175 9.95747L16.937 10.4104L17.3745 10.9303C17.4416 11.0214 17.5186 11.126 17.5708 11.2144" fill="black"/>
<path fill-rule="evenodd" clip-rule="evenodd" d="M18.2842 15.1353C18.2612 15.4277 18.1931 15.7139 18.0828 15.9822C17.8275 16.6618 17.4489 17.2795 16.9693 17.7993L16.7208 18.0271C16.6661 18.0726 16.6512 18.0968 16.5965 18.1423L16.1889 18.4479C15.9912 18.5793 15.7861 18.6974 15.5749 18.8016C15.4705 18.8525 15.3587 18.8954 15.2468 18.9437C14.8075 19.1208 14.3437 19.2168 13.8748 19.2277C13.7332 19.2516 13.5889 19.2516 13.4473 19.2277C13.3156 19.2063 13.1267 19.2277 12.7986 19.1581C11.9768 19.01 11.2055 18.632 10.5616 18.0619L10.313 17.8234C10.0394 17.5347 9.79682 17.2138 9.58972 16.8666L9.49278 16.7058C9.49278 17.0489 9.51764 17.5098 9.49278 17.8288C9.45714 18.1338 9.22774 18.37 8.94347 18.3943H8.79683C8.50555 18.3679 8.27445 18.1187 8.25001 17.8046V15.1246C8.28544 14.7911 8.54763 14.5395 8.85897 14.5403H11.1904C11.4548 14.5406 11.6901 14.7211 11.7769 14.9904C11.8637 15.2597 11.7829 15.5587 11.5757 15.7356C11.496 15.8054 11.401 15.8515 11.2998 15.8696C11.0396 15.8967 10.7778 15.9021 10.5168 15.8857C10.5591 15.9527 10.5839 16.0144 10.6262 16.0841C10.7839 16.3436 10.9636 16.5867 11.1631 16.8103C12.2013 17.8871 13.7402 18.1804 15.0579 17.5527C15.748 17.216 16.322 16.6534 16.6984 15.9447C17.1607 15.1407 16.9047 14.4975 17.7398 14.4975" fill="black"/>
</svg>
